<svg width="23" height="19" viewBox="0 0 23 19" fill="none" xmlns="http://www.w3.org/2000/svg">
<path d="M11.1111 0C4.97778 0 0 4.10667 0 9.16667C0 14.2267 4.97778 18.3333 11.1111 18.3333H16.6667V16.5H11.1111C6.28889 16.5 2.22222 13.145 2.22222 9.16667C2.22222 5.18833 6.28889 1.83333 11.1111 1.83333C15.9333 1.83333 20 5.18833 20 9.16667V10.4775C20 11.2017 19.2111 11.9167 18.3333 11.9167C17.4556 11.9167 16.6667 11.2017 16.6667 10.4775V9.16667C16.6667 6.63667 14.1778 4.58333 11.1111 4.58333C8.04444 4.58333 5.55556 6.63667 5.55556 9.16667C5.55556 11.6967 8.04444 13.75 11.1111 13.75C12.6444 13.75 14.0444 13.2367 15.0444 12.4025C15.7667 13.2183 17.0111 13.75 18.3333 13.75C20.5222 13.75 22.2222 12.2833 22.2222 10.4775V9.16667C22.2222 4.10667 17.2444 0 11.1111 0ZM11.1111 11.9167C9.26667 11.9167 7.77778 10.6883 7.77778 9.16667C7.77778 7.645 9.26667 6.41667 11.1111 6.41667C12.9556 6.41667 14.4444 7.645 14.4444 9.16667C14.4444 10.6883 12.9556 11.9167 11.1111 11.9167Z" fill="black"/>
</svg>
