<svg width="33" height="29" viewBox="0 0 33 29" fill="none" xmlns="http://www.w3.org/2000/svg">
<path fill-rule="evenodd" clip-rule="evenodd" d="M6.875 9.34889V19.6511C6.87718 20.2099 7.13197 20.7451 7.58327 21.1387C8.03457 21.5324 8.64539 21.7523 9.28125 21.75H23.7188C24.3546 21.7523 24.9654 21.5324 25.4167 21.1387C25.868 20.7451 26.1228 20.2099 26.125 19.6511V9.34889C26.1228 8.7901 25.868 8.25498 25.4167 7.86133C24.9654 7.46768 24.3546 7.24777 23.7188 7.25002H9.28125C8.64539 7.24777 8.03457 7.46768 7.58327 7.86133C7.13197 8.25498 6.87718 8.7901 6.875 9.34889Z" stroke="black" stroke-width="1.5" stroke-linecap="round" stroke-linejoin="round"/>
<path d="M26.125 12.96C26.5392 12.96 26.875 12.6242 26.875 12.21C26.875 11.7957 26.5392 11.46 26.125 11.46V12.96ZM6.875 11.46C6.46079 11.46 6.125 11.7957 6.125 12.21C6.125 12.6242 6.46079 12.96 6.875 12.96V11.46ZM17.7031 16.6804C18.1173 16.6804 18.4531 16.3446 18.4531 15.9304C18.4531 15.5162 18.1173 15.1804 17.7031 15.1804V16.6804ZM6.875 15.1804C6.46079 15.1804 6.125 15.5162 6.125 15.9304C6.125 16.3446 6.46079 16.6804 6.875 16.6804V15.1804ZM22.5156 16.6804C22.9298 16.6804 23.2656 16.3446 23.2656 15.9304C23.2656 15.5162 22.9298 15.1804 22.5156 15.1804V16.6804ZM21.3125 15.1804C20.8983 15.1804 20.5625 15.5162 20.5625 15.9304C20.5625 16.3446 20.8983 16.6804 21.3125 16.6804V15.1804ZM26.125 11.46H6.875V12.96H26.125V11.46ZM17.7031 15.1804H6.875V16.6804H17.7031V15.1804ZM22.5156 15.1804H21.3125V16.6804H22.5156V15.1804Z" fill="black"/>
</svg>
