<svg width="21" height="22" viewBox="0 0 21 22" fill="none" xmlns="http://www.w3.org/2000/svg">
<path d="M16.5079 7.33333V5.23809C16.5079 2.34667 13.6635 0 10.1587 0C6.65397 0 3.80952 2.34667 3.80952 5.23809V7.33333H0V22H20.3175V7.33333H16.5079ZM6.34921 5.23809C6.34921 3.49905 8.05079 2.09524 10.1587 2.09524C12.2667 2.09524 13.9683 3.49905 13.9683 5.23809V7.33333H6.34921V5.23809ZM17.7778 19.9048H2.53968V9.42857H17.7778V19.9048ZM10.1587 16.7619C11.5556 16.7619 12.6984 15.819 12.6984 14.6667C12.6984 13.5143 11.5556 12.5714 10.1587 12.5714C8.76191 12.5714 7.61905 13.5143 7.61905 14.6667C7.61905 15.819 8.76191 16.7619 10.1587 16.7619Z" fill="black"/>
</svg>
