<svg width="399" height="400" viewBox="0 0 399 400" fill="none" xmlns="http://www.w3.org/2000/svg">
<path d="M398.613 199.957C398.613 213.957 355.7 222.857 352.788 235.957C349.778 249.457 384.729 276.657 379.001 288.857C373.176 301.257 330.749 290.057 322.496 300.757C314.147 311.457 334.244 351.557 323.759 360.157C313.37 368.657 279.875 339.657 267.837 345.657C255.992 351.557 257.157 396.657 243.953 399.757C231.235 402.757 213.274 361.657 199.682 361.657C186.09 361.657 168.128 402.757 155.41 399.757C142.303 396.657 143.468 351.557 131.527 345.657C119.488 339.657 85.993 368.657 75.6047 360.157C65.2164 351.557 85.2163 311.457 76.8668 300.757C68.6144 290.057 26.1875 301.357 20.3623 288.857C14.6342 276.657 49.4883 249.457 46.5757 235.957C43.6631 222.857 0.750732 213.957 0.750732 199.957C0.750732 185.957 43.6631 177.057 46.5757 163.957C49.5854 150.457 14.6342 123.257 20.3623 111.057C26.1875 98.6566 68.6144 109.857 76.8668 99.1566C85.2163 88.4566 65.1193 48.3566 75.6047 39.7566C85.993 31.2566 119.488 60.2566 131.527 54.2566C143.371 48.3566 142.206 3.25659 155.41 0.156591C168.128 -2.84341 186.09 38.2566 199.682 38.2566C213.274 38.2566 231.235 -2.84341 243.953 0.156591C257.157 3.25659 255.992 48.3566 267.837 54.2566C279.875 60.2566 313.37 31.2566 323.759 39.7566C334.147 48.3566 314.147 88.4566 322.496 99.1566C330.749 109.857 373.176 98.5566 379.001 111.057C384.729 123.257 349.875 150.457 352.788 163.957C355.7 177.057 398.613 185.957 398.613 199.957Z" fill="#B76FEF"/>
</svg>
